<?xml version="1.0" standalone="no"?>
<svg id="loader" width="128" height="128" viewBox="0 0 128 128" fill="none" xmlns="http://www.w3.org/2000/svg" style="max-width: 100%; max-height: 100%;">
<path d="M115.333 64C115.333 92.3506 92.3506 115.333 64 115.333C58.9694 115.333 53.9382 114.887 48.8062 114.431C47.6686 114.331 46.526 114.229 45.3773 114.132C39.0989 113.602 32.6885 113.207 26.2695 113.824L12.8896 115.11L14.1762 101.73C14.7934 95.3115 14.3985 88.9012 13.8679 82.6227C13.7709 81.474 13.6695 80.3313 13.5685 79.1937C13.1131 74.0617 12.6667 69.0306 12.6667 64C12.6667 35.6494 35.6494 12.6667 64 12.6667C92.3506 12.6667 115.333 35.6494 115.333 64Z" fill="#5948C6" stroke="#EAE8FA" stroke-width="4" stroke-dasharray="0,0,0,344.42864990234375"><animate attributeType="XML" attributeName="stroke-dasharray" repeatCount="1" dur="2.5s" values="0,0,0,344.42864990234375; 
          0,172.21432495117188,172.21432495117188,0; 
          344.42864990234375,0,0,0" keyTimes="0; 0.5; 1" fill="freeze"></animate></path>
<path fill-rule="evenodd" clip-rule="evenodd" d="M40.7546 78.7034C41.5557 77.9023 42.8545 77.9023 43.6556 78.7034C54.8707 89.9184 73.0539 89.9184 84.2689 78.7034C85.07 77.9023 86.3688 77.9023 87.1699 78.7034C87.9709 79.5045 87.9709 80.8033 87.1699 81.6043C74.3527 94.4215 53.5719 94.4216 40.7546 81.6043C39.9536 80.8033 39.9536 79.5045 40.7546 78.7034Z" fill="#EAE8FA" stroke-dasharray="0,0,0,109.56846618652344"><animate attributeType="XML" attributeName="stroke-dasharray" repeatCount="1" dur="2.5s" values="0,0,0,109.56846618652344; 
          0,54.78423309326172,54.78423309326172,0; 
          109.56846618652344,0,0,0" keyTimes="0; 0.5; 1" fill="freeze"></animate></path>
<path d="M42.6362 47.1352V55.8198C42.6362 55.988 42.7387 56.0961 42.9436 56.1442C43.9171 56.2643 44.8649 56.3243 45.7872 56.3243C47.8622 56.3243 49.4377 55.9039 50.5136 55.0631C51.6152 54.1982 52.166 52.973 52.166 51.3874C52.166 48.1922 50.0397 46.5946 45.7872 46.5946C44.8649 46.5946 43.9171 46.6547 42.9436 46.7748C42.7387 46.8228 42.6362 46.943 42.6362 47.1352ZM39.4852 69.3334C38.896 69.3334 38.3837 69.1292 37.9482 68.7207C37.5383 68.3123 37.3333 67.8319 37.3333 67.2793V45.2613C37.3333 44.6847 37.5383 44.1682 37.9482 43.7117C38.3581 43.2553 38.8704 43.003 39.4852 42.955C41.6627 42.7628 43.7634 42.6667 45.7872 42.6667C49.6298 42.6667 52.5118 43.3874 54.4332 44.8288C56.3545 46.2463 57.3151 48.3123 57.3151 51.027C57.3151 54.03 56.3801 56.3003 54.51 57.8379C52.6655 59.3754 49.9244 60.1442 46.2867 60.1442C45.4413 60.1442 44.327 60.0961 42.9436 60C42.7387 60 42.6362 60.0961 42.6362 60.2883V67.2793C42.6362 67.8319 42.4185 68.3123 41.983 68.7207C41.5475 69.1292 41.0351 69.3334 40.4459 69.3334H39.4852Z" fill="#EAE8FA" stroke-dasharray="0,0,0,116.38644409179688"><animate attributeType="XML" attributeName="stroke-dasharray" repeatCount="1" dur="2.5s" values="0,0,0,116.38644409179688; 
          0,58.19322204589844,58.19322204589844,0; 
          116.38644409179688,0,0,0" keyTimes="0; 0.5; 1" fill="freeze"></animate></path>
<path d="M66.7269 69.3334C66.1377 69.3334 65.6254 69.1292 65.1899 68.7207C64.7544 68.3123 64.5366 67.8319 64.5366 67.2793V45.0811C64.5366 44.5285 64.7544 44.0481 65.1899 43.6397C65.6254 43.2312 66.1377 43.027 66.7269 43.027H67.6876C68.3537 43.027 68.9685 43.1952 69.5321 43.5316C70.0957 43.8679 70.5056 44.3123 70.7617 44.8649L77.4864 58.4865C77.4864 58.5105 77.4992 58.5225 77.5248 58.5225C77.5504 58.5225 77.5632 58.5105 77.5632 58.4865L84.2879 44.8649C84.544 44.3123 84.9539 43.8679 85.5175 43.5316C86.0811 43.1952 86.6959 43.027 87.362 43.027H88.4764C89.0656 43.027 89.5779 43.2312 90.0134 43.6397C90.4489 44.0481 90.6667 44.5285 90.6667 45.0811V67.2793C90.6667 67.8319 90.4489 68.3123 90.0134 68.7207C89.5779 69.1292 89.0656 69.3334 88.4764 69.3334H87.631C87.0418 69.3334 86.5294 69.1292 86.0939 68.7207C85.6584 68.3123 85.4407 67.8319 85.4407 67.2793V51.6036C85.4407 51.5796 85.4279 51.5676 85.4022 51.5676C85.3766 51.5676 85.3638 51.5796 85.3638 51.6036L80.7526 60.8649C80.4708 61.4174 80.0353 61.8739 79.4461 62.2343C78.8825 62.5706 78.2805 62.7388 77.6401 62.7388H77.4095C76.7691 62.7388 76.1543 62.5706 75.565 62.2343C75.0015 61.8739 74.5788 61.4174 74.297 60.8649L69.6858 51.6036C69.6858 51.5796 69.673 51.5676 69.6474 51.5676C69.6217 51.5676 69.6089 51.5796 69.6089 51.6036V67.2793C69.6089 67.8319 69.3912 68.3123 68.9557 68.7207C68.5202 69.1292 68.0078 69.3334 67.4186 69.3334H66.7269Z" fill="#EAE8FA" stroke-dasharray="0,0,0,166.18771362304688"><animate attributeType="XML" attributeName="stroke-dasharray" repeatCount="1" dur="2.5s" values="0,0,0,166.18771362304688; 
          0,83.09385681152344,83.09385681152344,0; 
          166.18771362304688,0,0,0" keyTimes="0; 0.5; 1" fill="freeze"></animate></path>
<setting>{"type":"direct","speed":20,"random":1,"shift":1,"size":1,"rupture":50}</setting></svg>